<?xml version="1.0" encoding="UTF-8" standalone="no"?>
<!-- Generator: Adobe Illustrator 18.0.0, SVG Export Plug-In . SVG Version: 6.00 Build 0)  -->

<svg
   xmlns:dc="http://purl.org/dc/elements/1.1/"
   xmlns:cc="http://creativecommons.org/ns#"
   xmlns:rdf="http://www.w3.org/1999/02/22-rdf-syntax-ns#"
   xmlns:svg="http://www.w3.org/2000/svg"
   xmlns="http://www.w3.org/2000/svg"
   xmlns:sodipodi="http://sodipodi.sourceforge.net/DTD/sodipodi-0.dtd"
   xmlns:inkscape="http://www.inkscape.org/namespaces/inkscape"
   version="1.1"
   id="Capa_1"
   x="0px"
   y="0px"
   viewBox="0 0 495.201 495.201"
   style="enable-background:new 0 0 495.201 495.201;"
   xml:space="preserve"
   sodipodi:docname="open.svg"
   inkscape:version="0.92.2 2405546, 2018-03-11"><metadata
   id="metadata39"><rdf:RDF><cc:Work
       rdf:about=""><dc:format>image/svg+xml</dc:format><dc:type
         rdf:resource="http://purl.org/dc/dcmitype/StillImage" /></cc:Work></rdf:RDF></metadata><defs
   id="defs37" /><sodipodi:namedview
   pagecolor="#ffffff"
   bordercolor="#666666"
   borderopacity="1"
   objecttolerance="10"
   gridtolerance="10"
   guidetolerance="10"
   inkscape:pageopacity="0"
   inkscape:pageshadow="2"
   inkscape:window-width="1366"
   inkscape:window-height="713"
   id="namedview35"
   showgrid="false"
   inkscape:zoom="1.3479553"
   inkscape:cx="160.48857"
   inkscape:cy="369.44077"
   inkscape:window-x="0"
   inkscape:window-y="27"
   inkscape:window-maximized="1"
   inkscape:current-layer="Capa_1" />
<path
   d="M360.243,183.719h-2.031v-73.104C358.211,49.627,308.587,0,247.597,0c-60.99,0-110.614,49.627-110.614,110.614  c0,16.136,13.085,29.221,29.217,29.221c16.136,0,29.221-13.085,29.221-29.221c0-28.768,23.406-52.177,52.177-52.177  s52.177,23.409,52.177,52.177v73.104H134.969c-27.485,0-49.766,22.284-49.766,49.765v211.956c0,27.48,22.28,49.762,49.766,49.762  h225.273c27.475,0,49.755-22.281,49.755-49.762V233.483C409.998,206.003,387.717,183.719,360.243,183.719z M279.302,365.575  c0,17.501-14.194,31.698-31.705,31.698c-17.504,0-31.697-14.197-31.697-31.698v-52.218c0-17.504,14.193-31.697,31.704-31.697  c17.504,0,31.698,14.193,31.698,31.697V365.575z"
   id="path2" />
<g
   id="g4">
</g>
<g
   id="g6">
</g>
<g
   id="g8">
</g>
<g
   id="g10">
</g>
<g
   id="g12">
</g>
<g
   id="g14">
</g>
<g
   id="g16">
</g>
<g
   id="g18">
</g>
<g
   id="g20">
</g>
<g
   id="g22">
</g>
<g
   id="g24">
</g>
<g
   id="g26">
</g>
<g
   id="g28">
</g>
<g
   id="g30">
</g>
<g
   id="g32">
</g>
<path
   style="fill:#7e57c2;fill-opacity:1;stroke:none;stroke-width:0.74186438"
   d="m 123.08124,493.26425 c -17.83406,-4.69012 -31.341168,-18.02177 -35.758715,-35.29421 -1.428147,-5.584 -1.465232,-8.60687 -1.454546,-118.56027 0.01214,-124.92723 -0.278989,-117.29314 4.871134,-127.73209 4.819412,-9.76861 13.284657,-18.09589 23.109677,-22.73301 10.38986,-4.90372 3.71983,-4.57961 99.46367,-4.83309 l 87.02384,-0.2304 -0.25964,-40.96741 c -0.29074,-45.875845 -0.13392,-44.373933 -5.86557,-56.175615 -2.5176,-5.183829 -4.27488,-7.511755 -9.8761,-13.083146 -5.54622,-5.516682 -7.97651,-7.339574 -13.06566,-9.800182 -8.14422,-3.937736 -14.91561,-5.514132 -23.68589,-5.514132 -8.85044,0 -15.61841,1.589063 -23.73966,5.573874 -5.08968,2.497332 -7.60532,4.388515 -13.04369,9.805898 -10.4291,10.388862 -14.45091,19.664755 -15.79935,36.439603 -0.50928,6.3355 -1.09749,9.13232 -2.5795,12.26504 -5.36182,11.33397 -16.15389,17.6972 -28.43874,16.76809 -13.10502,-0.99113 -23.74737,-10.76641 -26.15072,-24.02013 -1.00547,-5.54482 0.065,-19.285999 2.21517,-28.434915 5.11853,-21.77932 14.21376,-38.114533 29.95936,-53.807605 16.13483,-16.081004 34.02284,-25.8224068 56.06307,-30.5306661 8.99862,-1.92229702 34.02951,-1.92229702 43.02813,0 22.13207,4.727879 40.0096,14.4562421 56.05861,30.5052551 13.41519,13.41519 21.32187,26.099364 27.03071,43.363618 5.26319,15.916567 5.41456,17.629739 5.75018,65.080723 l 0.29967,42.37057 5.23517,0.48656 c 7.12627,0.66232 11.1542,1.71779 17.27625,4.52704 10.51037,4.82294 18.5793,12.65477 23.70517,23.00865 5.18324,10.46975 4.901,2.63444 4.68258,129.99123 l -0.19691,114.82401 -1.94578,5.00131 c -5.8039,14.91806 -17.00228,25.9341 -31.27898,30.76969 l -6.09405,2.06408 -120.55296,0.15021 c -116.8926,0.14566 -120.71792,0.10684 -125.98593,-1.27858 z m 132.40292,-96.71978 c 9.27913,-2.47066 16.66078,-8.6431 20.94235,-17.51176 l 2.68617,-5.56398 V 339.3045 305.14025 l -2.7888,-5.64275 c -12.9389,-26.18009 -50.7616,-23.20028 -59.22574,4.66602 -1.4088,4.6382 -1.47681,6.63071 -1.26634,37.10331 l 0.22241,32.2019 2.37504,5.01391 c 6.81203,14.38075 22.38009,21.96916 37.05491,18.06183 z"
   id="path859"
   inkscape:connector-curvature="0" /></svg>